<svg width="197" height="50" viewBox="0 0 197 50" fill="none" xmlns="http://www.w3.org/2000/svg">
<path d="M39.4512 28.5234L42.1445 30.6562L40.8525 31.7773L38.2002 29.6445L39.4512 28.5234ZM42.2129 24.791V25.2627C42.2129 26.0192 42.1104 26.6982 41.9053 27.2998C41.7048 27.9014 41.4154 28.4141 41.0371 28.8379C40.6589 29.2572 40.2122 29.5785 39.6973 29.8018C39.1823 30.0251 38.6104 30.1367 37.9814 30.1367C37.3571 30.1367 36.7852 30.0251 36.2656 29.8018C35.7461 29.5785 35.2972 29.2572 34.9189 28.8379C34.5407 28.4141 34.2467 27.9014 34.0371 27.2998C33.832 26.6982 33.7295 26.0192 33.7295 25.2627V24.791C33.7295 24.0299 33.832 23.3509 34.0371 22.7539C34.2467 22.1523 34.5384 21.6396 34.9121 21.2158C35.2858 20.792 35.7324 20.4684 36.252 20.2451C36.7715 20.0218 37.3434 19.9102 37.9678 19.9102C38.5967 19.9102 39.1686 20.0218 39.6836 20.2451C40.2031 20.4684 40.652 20.792 41.0303 21.2158C41.4085 21.6396 41.7002 22.1523 41.9053 22.7539C42.1104 23.3509 42.2129 24.0299 42.2129 24.791ZM40.1416 25.2627V24.7773C40.1416 24.2487 40.0915 23.7839 39.9912 23.3828C39.8955 22.9818 39.7542 22.6445 39.5674 22.3711C39.3851 22.0977 39.1595 21.8926 38.8906 21.7559C38.6217 21.6146 38.3141 21.5439 37.9678 21.5439C37.6214 21.5439 37.3138 21.6146 37.0449 21.7559C36.776 21.8926 36.5505 22.0977 36.3682 22.3711C36.1859 22.6445 36.0469 22.9818 35.9512 23.3828C35.8555 23.7839 35.8076 24.2487 35.8076 24.7773V25.2627C35.8076 25.7868 35.8555 26.2516 35.9512 26.6572C36.0469 27.0583 36.1859 27.3978 36.3682 27.6758C36.555 27.9492 36.7829 28.1566 37.0518 28.2979C37.3252 28.4391 37.6351 28.5098 37.9814 28.5098C38.3278 28.5098 38.6331 28.4391 38.8975 28.2979C39.1663 28.1566 39.3919 27.9492 39.5742 27.6758C39.7611 27.3978 39.9023 27.0583 39.998 26.6572C40.0938 26.2516 40.1416 25.7868 40.1416 25.2627ZM49.1924 20.0469H51.2363V26.623C51.2363 27.3887 51.0723 28.0335 50.7441 28.5576C50.4206 29.0817 49.9717 29.4759 49.3975 29.7402C48.8278 30.0046 48.1715 30.1367 47.4287 30.1367C46.6859 30.1367 46.0251 30.0046 45.4463 29.7402C44.8721 29.4759 44.4209 29.0817 44.0928 28.5576C43.7692 28.0335 43.6074 27.3887 43.6074 26.623V20.0469H45.6582V26.623C45.6582 27.0697 45.7288 27.4342 45.8701 27.7168C46.0114 27.9993 46.2142 28.2067 46.4785 28.3389C46.7474 28.471 47.0641 28.5371 47.4287 28.5371C47.8024 28.5371 48.1191 28.471 48.3789 28.3389C48.6432 28.2067 48.8438 27.9993 48.9805 27.7168C49.1217 27.4342 49.1924 27.0697 49.1924 26.623V20.0469ZM59.6035 28.4004V30H54.3057V28.4004H59.6035ZM54.9756 20.0469V30H52.9248V20.0469H54.9756ZM58.9131 24.1006V25.6592H54.3057V24.1006H58.9131ZM59.5967 20.0469V21.6533H54.3057V20.0469H59.5967ZM60.7998 20.0469H64.5117C65.2728 20.0469 65.9268 20.1608 66.4736 20.3887C67.0251 20.6165 67.4489 20.9538 67.7451 21.4004C68.0413 21.847 68.1895 22.3962 68.1895 23.0479C68.1895 23.5811 68.0983 24.0391 67.916 24.4219C67.7383 24.8001 67.4854 25.1169 67.1572 25.3721C66.8337 25.6227 66.4531 25.8232 66.0156 25.9736L65.3662 26.3154H62.1396L62.126 24.7158H64.5254C64.8854 24.7158 65.1839 24.652 65.4209 24.5244C65.6579 24.3968 65.8356 24.2191 65.9541 23.9912C66.0771 23.7633 66.1387 23.499 66.1387 23.1982C66.1387 22.8792 66.0794 22.6035 65.9609 22.3711C65.8424 22.1387 65.6624 21.9609 65.4209 21.8379C65.1794 21.7148 64.8763 21.6533 64.5117 21.6533H62.8506V30H60.7998V20.0469ZM66.3643 30L64.0947 25.5635L66.2617 25.5498L68.5586 29.9043V30H66.3643ZM77.9443 24.791V25.2627C77.9443 26.0192 77.8418 26.6982 77.6367 27.2998C77.4316 27.9014 77.1423 28.4141 76.7686 28.8379C76.3949 29.2572 75.9482 29.5785 75.4287 29.8018C74.9137 30.0251 74.3418 30.1367 73.7129 30.1367C73.0885 30.1367 72.5166 30.0251 71.9971 29.8018C71.4821 29.5785 71.0355 29.2572 70.6572 28.8379C70.279 28.4141 69.985 27.9014 69.7754 27.2998C69.5703 26.6982 69.4678 26.0192 69.4678 25.2627V24.791C69.4678 24.0299 69.5703 23.3509 69.7754 22.7539C69.9805 22.1523 70.2699 21.6396 70.6436 21.2158C71.0218 20.792 71.4684 20.4684 71.9834 20.2451C72.5029 20.0218 73.0749 19.9102 73.6992 19.9102C74.3281 19.9102 74.9001 20.0218 75.415 20.2451C75.9346 20.4684 76.3812 20.792 76.7549 21.2158C77.1331 21.6396 77.4248 22.1523 77.6299 22.7539C77.8395 23.3509 77.9443 24.0299 77.9443 24.791ZM75.873 25.2627V24.7773C75.873 24.2487 75.8252 23.7839 75.7295 23.3828C75.6338 22.9818 75.4925 22.6445 75.3057 22.3711C75.1188 22.0977 74.891 21.8926 74.6221 21.7559C74.3532 21.6146 74.0456 21.5439 73.6992 21.5439C73.3529 21.5439 73.0452 21.6146 72.7764 21.7559C72.512 21.8926 72.2865 22.0977 72.0996 22.3711C71.9173 22.6445 71.7783 22.9818 71.6826 23.3828C71.5869 23.7839 71.5391 24.2487 71.5391 24.7773V25.2627C71.5391 25.7868 71.5869 26.2516 71.6826 26.6572C71.7783 27.0583 71.9196 27.3978 72.1064 27.6758C72.2933 27.9492 72.5212 28.1566 72.79 28.2979C73.0589 28.4391 73.3665 28.5098 73.7129 28.5098C74.0592 28.5098 74.3669 28.4391 74.6357 28.2979C74.9046 28.1566 75.1302 27.9492 75.3125 27.6758C75.4948 27.3978 75.6338 27.0583 75.7295 26.6572C75.8252 26.2516 75.873 25.7868 75.873 25.2627ZM88.0889 27.3955C88.0889 27.2178 88.0615 27.0583 88.0068 26.917C87.9567 26.7712 87.861 26.639 87.7197 26.5205C87.5785 26.3975 87.3802 26.2767 87.125 26.1582C86.8698 26.0397 86.5394 25.9167 86.1338 25.7891C85.6826 25.6432 85.2542 25.4792 84.8486 25.2969C84.4476 25.1146 84.0921 24.9027 83.7822 24.6611C83.4769 24.415 83.2354 24.1302 83.0576 23.8066C82.8844 23.4831 82.7979 23.1071 82.7979 22.6787C82.7979 22.264 82.889 21.888 83.0713 21.5508C83.2536 21.209 83.5088 20.9173 83.8369 20.6758C84.165 20.4297 84.5524 20.2406 84.999 20.1084C85.4502 19.9762 85.9447 19.9102 86.4824 19.9102C87.2161 19.9102 87.8564 20.0423 88.4033 20.3066C88.9502 20.571 89.374 20.9333 89.6748 21.3936C89.9801 21.8538 90.1328 22.3802 90.1328 22.9727H88.0957C88.0957 22.681 88.0342 22.4258 87.9111 22.207C87.7926 21.9837 87.6104 21.8083 87.3643 21.6807C87.1227 21.5531 86.8174 21.4893 86.4482 21.4893C86.0928 21.4893 85.7965 21.5439 85.5596 21.6533C85.3226 21.7581 85.1449 21.9017 85.0264 22.084C84.9079 22.2617 84.8486 22.4622 84.8486 22.6855C84.8486 22.8542 84.8896 23.0068 84.9717 23.1436C85.0583 23.2803 85.1859 23.4079 85.3545 23.5264C85.5231 23.6449 85.7305 23.7565 85.9766 23.8613C86.2227 23.9661 86.5075 24.0687 86.8311 24.1689C87.3734 24.333 87.8496 24.5176 88.2598 24.7227C88.6745 24.9277 89.0208 25.1579 89.2988 25.4131C89.5768 25.6683 89.7865 25.9577 89.9277 26.2812C90.069 26.6048 90.1396 26.9717 90.1396 27.3818C90.1396 27.8148 90.0553 28.2021 89.8867 28.5439C89.7181 28.8857 89.4743 29.1751 89.1553 29.4121C88.8363 29.6491 88.4557 29.8291 88.0137 29.9521C87.5716 30.0752 87.0771 30.1367 86.5303 30.1367C86.0381 30.1367 85.5527 30.0729 85.0742 29.9453C84.5957 29.8132 84.1605 29.6149 83.7686 29.3506C83.3812 29.0863 83.0713 28.749 82.8389 28.3389C82.6064 27.9287 82.4902 27.4434 82.4902 26.8828H84.5479C84.5479 27.1927 84.5957 27.4548 84.6914 27.6689C84.7871 27.8831 84.9215 28.0563 85.0947 28.1885C85.2725 28.3206 85.4821 28.4163 85.7236 28.4756C85.9697 28.5348 86.2386 28.5645 86.5303 28.5645C86.8857 28.5645 87.1774 28.5143 87.4053 28.4141C87.6377 28.3138 87.8086 28.1748 87.918 27.9971C88.0319 27.8193 88.0889 27.6188 88.0889 27.3955ZM95.5811 21.749L92.874 30H90.6934L94.3916 20.0469H95.7793L95.5811 21.749ZM97.8301 30L95.1162 21.749L94.8975 20.0469H96.2988L100.018 30H97.8301ZM97.707 26.2949V27.9014H92.4502V26.2949H97.707ZM104.837 25.6318H102.28L102.267 24.2236H104.413C104.791 24.2236 105.101 24.1758 105.343 24.0801C105.584 23.9798 105.764 23.8363 105.883 23.6494C106.006 23.458 106.067 23.2256 106.067 22.9521C106.067 22.6423 106.008 22.3916 105.89 22.2002C105.776 22.0088 105.596 21.8698 105.35 21.7832C105.108 21.6966 104.796 21.6533 104.413 21.6533H102.991V30H100.94V20.0469H104.413C104.992 20.0469 105.509 20.1016 105.965 20.2109C106.425 20.3203 106.815 20.4867 107.134 20.71C107.453 20.9333 107.697 21.2158 107.865 21.5576C108.034 21.8949 108.118 22.2959 108.118 22.7607C108.118 23.1709 108.025 23.5492 107.838 23.8955C107.656 24.2419 107.366 24.5244 106.97 24.7432C106.578 24.9619 106.065 25.0827 105.432 25.1055L104.837 25.6318ZM104.748 30H101.72L102.52 28.4004H104.748C105.108 28.4004 105.402 28.3434 105.63 28.2295C105.858 28.111 106.026 27.9515 106.136 27.751C106.245 27.5505 106.3 27.3203 106.3 27.0605C106.3 26.7689 106.25 26.516 106.149 26.3018C106.054 26.0876 105.899 25.9235 105.685 25.8096C105.47 25.6911 105.188 25.6318 104.837 25.6318H102.861L102.875 24.2236H105.336L105.808 24.7773C106.414 24.7682 106.901 24.8753 107.271 25.0986C107.644 25.3174 107.915 25.6022 108.084 25.9531C108.257 26.304 108.344 26.68 108.344 27.0811C108.344 27.7191 108.205 28.2568 107.927 28.6943C107.649 29.1273 107.241 29.4531 106.703 29.6719C106.17 29.8906 105.518 30 104.748 30ZM116.561 28.4004V30H111.263V28.4004H116.561ZM111.933 20.0469V30H109.882V20.0469H111.933ZM115.87 24.1006V25.6592H111.263V24.1006H115.87ZM116.554 20.0469V21.6533H111.263V20.0469H116.554ZM117.757 20.0469H121.469C122.23 20.0469 122.884 20.1608 123.431 20.3887C123.982 20.6165 124.406 20.9538 124.702 21.4004C124.998 21.847 125.146 22.3962 125.146 23.0479C125.146 23.5811 125.055 24.0391 124.873 24.4219C124.695 24.8001 124.442 25.1169 124.114 25.3721C123.791 25.6227 123.41 25.8232 122.973 25.9736L122.323 26.3154H119.097L119.083 24.7158H121.482C121.842 24.7158 122.141 24.652 122.378 24.5244C122.615 24.3968 122.793 24.2191 122.911 23.9912C123.034 23.7633 123.096 23.499 123.096 23.1982C123.096 22.8792 123.036 22.6035 122.918 22.3711C122.799 22.1387 122.619 21.9609 122.378 21.8379C122.136 21.7148 121.833 21.6533 121.469 21.6533H119.808V30H117.757V20.0469ZM123.321 30L121.052 25.5635L123.219 25.5498L125.516 29.9043V30H123.321ZM131.148 20.0469H132.885L135.441 27.3545L137.998 20.0469H139.734L136.139 30H134.744L131.148 20.0469ZM130.212 20.0469H131.941L132.256 27.1699V30H130.212V20.0469ZM138.941 20.0469H140.678V30H138.627V27.1699L138.941 20.0469ZM146.646 21.749L143.938 30H141.758L145.456 20.0469H146.844L146.646 21.749ZM148.895 30L146.181 21.749L145.962 20.0469H147.363L151.082 30H148.895ZM148.771 26.2949V27.9014H143.515V26.2949H148.771ZM154.186 20.0469V30H152.142V20.0469H154.186ZM161.288 27.3955C161.288 27.2178 161.261 27.0583 161.206 26.917C161.156 26.7712 161.06 26.639 160.919 26.5205C160.778 26.3975 160.579 26.2767 160.324 26.1582C160.069 26.0397 159.739 25.9167 159.333 25.7891C158.882 25.6432 158.453 25.4792 158.048 25.2969C157.647 25.1146 157.291 24.9027 156.981 24.6611C156.676 24.415 156.435 24.1302 156.257 23.8066C156.084 23.4831 155.997 23.1071 155.997 22.6787C155.997 22.264 156.088 21.888 156.271 21.5508C156.453 21.209 156.708 20.9173 157.036 20.6758C157.364 20.4297 157.752 20.2406 158.198 20.1084C158.649 19.9762 159.144 19.9102 159.682 19.9102C160.415 19.9102 161.056 20.0423 161.603 20.3066C162.149 20.571 162.573 20.9333 162.874 21.3936C163.179 21.8538 163.332 22.3802 163.332 22.9727H161.295C161.295 22.681 161.233 22.4258 161.11 22.207C160.992 21.9837 160.81 21.8083 160.563 21.6807C160.322 21.5531 160.017 21.4893 159.647 21.4893C159.292 21.4893 158.996 21.5439 158.759 21.6533C158.522 21.7581 158.344 21.9017 158.226 22.084C158.107 22.2617 158.048 22.4622 158.048 22.6855C158.048 22.8542 158.089 23.0068 158.171 23.1436C158.257 23.2803 158.385 23.4079 158.554 23.5264C158.722 23.6449 158.93 23.7565 159.176 23.8613C159.422 23.9661 159.707 24.0687 160.03 24.1689C160.573 24.333 161.049 24.5176 161.459 24.7227C161.874 24.9277 162.22 25.1579 162.498 25.4131C162.776 25.6683 162.986 25.9577 163.127 26.2812C163.268 26.6048 163.339 26.9717 163.339 27.3818C163.339 27.8148 163.255 28.2021 163.086 28.5439C162.917 28.8857 162.674 29.1751 162.354 29.4121C162.035 29.6491 161.655 29.8291 161.213 29.9521C160.771 30.0752 160.276 30.1367 159.729 30.1367C159.237 30.1367 158.752 30.0729 158.273 29.9453C157.795 29.8132 157.36 29.6149 156.968 29.3506C156.58 29.0863 156.271 28.749 156.038 28.3389C155.806 27.9287 155.689 27.4434 155.689 26.8828H157.747C157.747 27.1927 157.795 27.4548 157.891 27.6689C157.986 27.8831 158.121 28.0563 158.294 28.1885C158.472 28.3206 158.681 28.4163 158.923 28.4756C159.169 28.5348 159.438 28.5645 159.729 28.5645C160.085 28.5645 160.377 28.5143 160.604 28.4141C160.837 28.3138 161.008 28.1748 161.117 27.9971C161.231 27.8193 161.288 27.6188 161.288 27.3955Z" fill="white"/>
<rect x="1" y="1" width="195" height="48" rx="5" stroke="white" stroke-width="2"/>
</svg>
